# This file uses centimeters as units for non-parametric coordinates.

mtllib Knife.mtl
g default
v -0.009187 -0.000982 0.008480
v 0.090370 0.000288 0.008480
v -0.009187 0.001558 0.008480
v -0.009187 0.000288 -0.008289
v 0.057184 0.000288 -0.008289
v 0.057184 -0.000982 0.008480
v 0.057184 0.001558 0.008480
v -0.088560 -0.003469 0.010416
v -0.007044 -0.003469 0.010416
v -0.088560 0.003469 0.010416
v -0.007044 0.003469 0.010416
v -0.088560 0.003469 -0.010416
v -0.007044 0.003469 -0.010416
v -0.088560 -0.003469 -0.010416
v -0.007044 -0.003469 -0.010416
v -0.088560 0.006043 -0.006795
v -0.088560 -0.006043 -0.006795
v -0.007044 -0.006043 -0.006795
v -0.007044 0.006043 -0.006795
v -0.088560 0.006043 0.006796
v -0.088560 -0.006043 0.006796
v -0.007044 -0.006043 0.006796
v -0.007044 0.006043 0.006796
v -0.090370 -0.005237 0.006116
v -0.090370 -0.003007 0.009374
v -0.090370 0.003007 0.009374
v -0.090370 0.005237 0.006116
v -0.090370 -0.003007 -0.009374
v -0.090370 -0.005237 -0.006115
v -0.090370 0.005237 -0.006115
v -0.090370 0.003007 -0.009374
vt 0.980235 0.678132
vt 0.980235 0.678132
vt 0.980235 0.774533
vt 0.980235 0.774533
vt 0.955878 0.774533
vt 0.955878 0.678132
vt 0.980235 0.822734
vt 0.929892 0.292821
vt 0.929890 0.199109
vt 0.935740 0.199109
vt 0.935738 0.292821
vt 0.939428 0.199109
vt 0.939422 0.292822
vt 0.958461 0.292824
vt 0.958463 0.199111
vt 0.964309 0.199111
vt 0.964311 0.292824
vt 0.926207 0.292822
vt 0.926202 0.199109
vt 0.956734 0.984269
vt 0.948817 0.973130
vt 0.985999 0.973130
vt 0.978082 0.984269
vt 0.951295 0.971038
vt 0.958157 0.981063
vt 0.976659 0.981063
vt 0.983521 0.971038
vt 0.958157 0.923381
vt 0.951295 0.933407
vt 0.983521 0.933407
vt 0.976659 0.923381
vt 0.967993 0.199111
vt 0.967999 0.292823
vt 0.985999 0.931316
vt 0.948817 0.931315
vt 0.956734 0.920176
vt 0.978082 0.920176
vt 0.954773 0.292823
vt 0.954778 0.199111
vt 0.983344 0.199109
vt 0.983349 0.292822
vt 0.948817 0.973130
vt 0.956734 0.984269
vt 0.978082 0.984269
vt 0.985999 0.973130
vt 0.956734 0.920176
vt 0.948817 0.931315
vt 0.985999 0.931316
vt 0.978082 0.920176
vn 0.000000 0.000000 1.000000
vn 0.000000 0.000000 1.000000
vn 0.000000 0.000000 1.000000
vn 0.000000 0.000000 1.000000
vn 0.005704 0.997129 -0.075512
vn 0.000000 0.997145 -0.075513
vn 0.000000 0.997145 -0.075513
vn 0.007620 0.997116 -0.075511
vn 0.000000 -0.997145 -0.075513
vn 0.000000 -0.997145 -0.075513
vn 0.005704 -0.997129 -0.075512
vn 0.007620 -0.997116 -0.075511
vn 0.038128 -0.996420 -0.075458
vn 0.000000 0.000000 1.000000
vn 0.038128 0.996420 -0.075458
vn 0.000000 0.000000 1.000000
vn 0.000000 0.000000 1.000000
vn 0.000000 0.000000 1.000000
vn 0.000000 0.000000 1.000000
vn 0.000000 0.815093 0.579330
vn 0.000000 0.815093 0.579330
vn 0.000000 0.989007 0.147870
vn 0.000000 0.989007 0.147870
vn 0.000000 0.000000 -1.000000
vn 0.000000 0.000000 -1.000000
vn 0.000000 0.000000 -1.000000
vn 0.000000 0.000000 -1.000000
vn 0.000000 -0.989007 0.147870
vn 0.000000 -0.989007 0.147870
vn 0.000000 -0.815093 0.579330
vn 0.000000 -0.815093 0.579330
vn 1.000000 0.000000 0.000000
vn 1.000000 0.000000 0.000000
vn 1.000000 0.000000 0.000000
vn 1.000000 0.000000 0.000000
vn -1.000000 0.000000 0.000000
vn -1.000000 0.000000 0.000000
vn -1.000000 0.000000 0.000000
vn -1.000000 0.000000 0.000000
vn -1.000000 0.000000 0.000000
vn -1.000000 0.000000 0.000000
vn -1.000000 0.000000 0.000000
vn -1.000000 0.000000 0.000000
vn 0.000000 -0.815093 -0.579330
vn 0.000000 -0.815093 -0.579330
vn 0.000000 -0.989007 -0.147870
vn 0.000000 -0.989007 -0.147870
vn 1.000000 0.000000 0.000000
vn 1.000000 0.000000 0.000000
vn 1.000000 0.000000 0.000000
vn 1.000000 0.000000 0.000000
vn 0.000000 0.989007 -0.147870
vn 0.000000 0.989007 -0.147870
vn 0.000000 0.815093 -0.579330
vn 0.000000 0.815093 -0.579330
vn -0.488340 -0.715477 0.499617
vn -0.488340 -0.715477 0.499617
vn -0.488340 -0.715477 0.499617
vn -0.488340 -0.715477 0.499617
vn -0.498964 0.000000 0.866623
vn -0.498964 0.000000 0.866623
vn -0.498964 0.000000 0.866623
vn -0.498964 0.000000 0.866623
vn -0.488340 0.715477 0.499617
vn -0.488340 0.715477 0.499617
vn -0.488340 0.715477 0.499617
vn -0.488340 0.715477 0.499617
vn -0.488286 -0.715519 -0.499610
vn -0.488285 -0.715519 -0.499610
vn -0.488286 -0.715519 -0.499610
vn -0.488285 -0.715519 -0.499610
vn -0.488286 0.715518 -0.499611
vn -0.488286 0.715518 -0.499611
vn -0.488286 0.715518 -0.499611
vn -0.488286 0.715518 -0.499611
vn -0.498793 0.000000 -0.866721
vn -0.498793 0.000000 -0.866721
vn -0.498793 0.000000 -0.866721
vn -0.498793 0.000000 -0.866721
vn -0.406655 -0.913582 0.000000
vn -0.406655 -0.913582 0.000000
vn -0.406655 -0.913582 0.000000
vn -0.406655 -0.913582 0.000000
vn -0.406655 0.913582 0.000000
vn -0.406655 0.913582 0.000000
vn -0.406655 0.913582 0.000000
vn -0.406655 0.913582 0.000000
s 1
g Knife
usemtl lambert26SG
f 3/1/1 1/2/2 6/3/3 7/4/4
s 2
f 5/5/5 4/6/6 3/1/7 7/4/8
s 3
f 1/2/9 4/6/10 5/5/11 6/3/12
f 6/3/12 5/5/11 2/7/13
s 1
f 7/4/4 6/3/3 2/7/14
s 2
f 5/5/5 7/4/8 2/7/15
s off
f 8/8/16 9/9/17 11/10/18 10/11/19
s 4
f 10/11/20 11/10/21 23/12/22 20/13/23
s off
f 12/14/24 13/15/25 15/16/26 14/17/27
s 5
f 21/18/28 22/19/29 9/9/30 8/8/31
s 6
f 9/20/32 22/21/33 23/22/34 11/23/35
s 7
f 24/24/36 25/25/37 26/26/38 27/27/39
f 28/28/40 29/29/41 30/30/42 31/31/43
s 5
f 14/17/44 15/16/45 18/32/46 17/33/47
s 6
f 19/34/48 18/35/49 15/36/50 13/37/51
s 4
f 16/38/52 19/39/53 13/15/54 12/14/55
s 7
f 29/29/41 24/24/36 27/27/39 30/30/42
s 5
f 17/33/47 18/32/46 22/40/29 21/41/28
s 6
f 23/22/34 22/21/33 18/35/49 19/34/48
s 4
f 20/13/23 23/12/22 19/39/53 16/38/52
s off
f 21/42/56 8/43/57 25/25/58 24/24/59
f 8/43/60 10/44/61 26/26/62 25/25/63
f 10/44/64 20/45/65 27/27/66 26/26/67
f 14/46/68 17/47/69 29/29/70 28/28/71
f 16/48/72 12/49/73 31/31/74 30/30/75
f 12/49/76 14/46/77 28/28/78 31/31/79
f 17/47/80 21/42/81 24/24/82 29/29/83
f 20/45/84 16/48/85 30/30/86 27/27/87
